<svg width="279" height="193" viewBox="0 0 279 193" fill="none" xmlns="http://www.w3.org/2000/svg">
<circle cx="172.5" cy="87.5" r="17.5" fill="white"/>
<path d="M182.601 102.246C179.71 104.178 176.31 105.21 172.833 105.21C168.169 105.21 163.697 103.357 160.4 100.06C157.102 96.7623 155.25 92.29 155.25 87.6268C155.25 84.1492 156.281 80.7498 158.213 77.8583C160.145 74.9668 162.891 72.7132 166.104 71.3824C169.317 70.0516 172.852 69.7034 176.263 70.3818C179.674 71.0602 182.807 72.7348 185.266 75.1938C187.725 77.6529 189.399 80.7858 190.078 84.1965C190.756 87.6073 190.408 91.1426 189.077 94.3554C187.746 97.5683 185.493 100.314 182.601 102.246ZM138.893 133.971C138.893 127.627 144.077 122.554 151.341 118.973C158.519 115.434 167.153 113.662 172.833 113.662C178.513 113.662 187.146 115.434 194.325 118.973C201.588 122.554 206.772 127.627 206.772 133.971V143.375H138.893V133.971Z" fill="#FBFCFF" stroke="#0069A9" stroke-width="3"/>
<path fill-rule="evenodd" clip-rule="evenodd" d="M100.581 20C97.8196 20 95.5811 22.2386 95.5811 25V48.653C95.5811 51.4145 97.8196 53.653 100.581 53.653H130.504C131.35 53.653 132.156 54.0102 132.725 54.6365L140.459 63.1558C140.867 63.6057 141.579 63.5903 141.968 63.1233L148.95 54.734C149.52 54.0491 150.364 53.653 151.256 53.653H153.643C156.405 53.653 158.643 51.4145 158.643 48.653V25C158.643 22.2386 156.405 20 153.643 20H100.581Z" fill="white"/>
<path d="M140.459 63.1558L141.57 62.1475L141.57 62.1475L140.459 63.1558ZM141.968 63.1233L140.815 62.1638L140.815 62.1638L141.968 63.1233ZM148.95 54.734L150.103 55.6935L148.95 54.734ZM132.725 54.6365L131.614 55.6448L132.725 54.6365ZM97.0811 25C97.0811 23.067 98.6481 21.5 100.581 21.5V18.5C96.9912 18.5 94.0811 21.4101 94.0811 25H97.0811ZM97.0811 48.653V25H94.0811V48.653H97.0811ZM100.581 52.153C98.6481 52.153 97.0811 50.586 97.0811 48.653H94.0811C94.0811 52.2429 96.9912 55.153 100.581 55.153V52.153ZM130.504 52.153H100.581V55.153H130.504V52.153ZM141.57 62.1475L133.835 53.6283L131.614 55.6448L139.348 64.164L141.57 62.1475ZM140.815 62.1638C141.009 61.9303 141.365 61.9226 141.57 62.1475L139.348 64.164C140.369 65.2888 142.149 65.2504 143.121 64.0828L140.815 62.1638ZM147.797 53.7745L140.815 62.1638L143.121 64.0828L150.103 55.6935L147.797 53.7745ZM153.643 52.153H151.256V55.153H153.643V52.153ZM157.143 48.653C157.143 50.586 155.576 52.153 153.643 52.153V55.153C157.233 55.153 160.143 52.2429 160.143 48.653H157.143ZM157.143 25V48.653H160.143V25H157.143ZM153.643 21.5C155.576 21.5 157.143 23.067 157.143 25H160.143C160.143 21.4101 157.233 18.5 153.643 18.5V21.5ZM100.581 21.5H153.643V18.5H100.581V21.5ZM150.103 55.6935C150.388 55.3511 150.81 55.153 151.256 55.153V52.153C149.919 52.153 148.652 52.7472 147.797 53.7745L150.103 55.6935ZM130.504 55.153C130.927 55.153 131.33 55.3316 131.614 55.6448L133.835 53.6283C132.982 52.6888 131.773 52.153 130.504 52.153V55.153Z" fill="#0069A9"/>
<path d="M127.492 114.726C123.957 117.087 119.802 118.347 115.552 118.347C109.852 118.347 104.385 116.083 100.355 112.053C96.3247 108.022 94.0604 102.556 94.0604 96.8561C94.0604 92.6055 95.3208 88.4504 97.6823 84.9162C100.044 81.3819 103.4 78.6273 107.327 77.0007C111.254 75.3741 115.576 74.9485 119.745 75.7777C123.913 76.607 127.743 78.6538 130.748 81.6594C133.754 84.6651 135.801 88.4944 136.63 92.6634C137.459 96.8323 137.034 101.153 135.407 105.081C133.781 109.008 131.026 112.364 127.492 114.726ZM74.3535 152.692C74.3535 144.863 80.7467 138.674 89.522 134.347C98.2124 130.062 108.66 127.916 115.552 127.916C122.443 127.916 132.891 130.062 141.582 134.347C150.357 138.674 156.75 144.863 156.75 152.692V164.33H74.3535V152.692Z" fill="#FBFCFF" stroke="#0069A9" stroke-width="3"/>
<circle cx="110.972" cy="37.4931" r="2.77773" fill="#0069A9"/>
<circle cx="127.639" cy="37.4931" r="2.77773" fill="#0069A9"/>
<circle cx="144.305" cy="37.4931" r="2.77773" fill="#0069A9"/>
</svg>
